<mxfile host="Electron" modified="2024-04-01T10:05:35.834Z" agent="Mozilla/5.0 (Windows NT 10.0; Win64; x64) AppleWebKit/537.36 (KHTML, like Gecko) draw.io/24.1.0 Chrome/120.0.6099.109 Electron/28.1.0 Safari/537.36" etag="gqvTkzY7xjdQwCjXx8NW" version="24.1.0" type="device">
  <diagram id="R2lEEEUBdFMjLlhIrx00" name="Page-1">
    <mxGraphModel dx="1036" dy="606" grid="1" gridSize="10" guides="0" tooltips="1" connect="1" arrows="1" fold="1" page="1" pageScale="1" pageWidth="827" pageHeight="1169" background="none" math="0" shadow="0" extFonts="Permanent Marker^https://fonts.googleapis.com/css?family=Permanent+Marker">
      <root>
        <mxCell id="0" />
        <mxCell id="1" parent="0" />
        <mxCell id="SwGKeSVZPL9AItlMTAbg-15" value="Admin" style="whiteSpace=wrap;html=1;align=center;glass=0;rounded=0;shadow=0;" parent="1" vertex="1">
          <mxGeometry x="119.99999999999999" y="66" width="97" height="40" as="geometry" />
        </mxCell>
        <mxCell id="SwGKeSVZPL9AItlMTAbg-18" value="&lt;b&gt;User_Id&lt;/b&gt;" style="ellipse;whiteSpace=wrap;html=1;align=center;" parent="1" vertex="1">
          <mxGeometry x="10" y="36" width="90" height="25" as="geometry" />
        </mxCell>
        <mxCell id="SwGKeSVZPL9AItlMTAbg-20" value="Name" style="ellipse;whiteSpace=wrap;html=1;align=center;" parent="1" vertex="1">
          <mxGeometry x="70" y="6" width="90" height="25" as="geometry" />
        </mxCell>
        <mxCell id="SwGKeSVZPL9AItlMTAbg-22" value="Password&amp;nbsp;" style="ellipse;whiteSpace=wrap;html=1;align=center;" parent="1" vertex="1">
          <mxGeometry x="190" y="6" width="90" height="25" as="geometry" />
        </mxCell>
        <mxCell id="SwGKeSVZPL9AItlMTAbg-23" value="Role" style="ellipse;whiteSpace=wrap;html=1;align=center;" parent="1" vertex="1">
          <mxGeometry x="240" y="36" width="90" height="25" as="geometry" />
        </mxCell>
        <mxCell id="SwGKeSVZPL9AItlMTAbg-34" value="Adds" style="rhombus;whiteSpace=wrap;html=1;glass=0;rounded=0;shadow=0;" parent="1" vertex="1">
          <mxGeometry x="118.86999999999999" y="160" width="99.25" height="40" as="geometry" />
        </mxCell>
        <mxCell id="SwGKeSVZPL9AItlMTAbg-37" value="" style="endArrow=none;html=1;rounded=0;exitX=0.5;exitY=1;exitDx=0;exitDy=0;entryX=0.5;entryY=0;entryDx=0;entryDy=0;" parent="1" source="SwGKeSVZPL9AItlMTAbg-15" target="SwGKeSVZPL9AItlMTAbg-34" edge="1">
          <mxGeometry relative="1" as="geometry">
            <mxPoint x="390" y="186" as="sourcePoint" />
            <mxPoint x="168.49500000000012" y="146" as="targetPoint" />
          </mxGeometry>
        </mxCell>
        <mxCell id="SwGKeSVZPL9AItlMTAbg-38" value="Category" style="whiteSpace=wrap;html=1;align=center;glass=0;rounded=0;shadow=0;" parent="1" vertex="1">
          <mxGeometry x="120" y="241" width="97" height="40" as="geometry" />
        </mxCell>
        <mxCell id="SwGKeSVZPL9AItlMTAbg-41" value="&lt;b&gt;C_id&lt;/b&gt;" style="ellipse;whiteSpace=wrap;html=1;align=center;" parent="1" vertex="1">
          <mxGeometry y="230" width="90" height="25" as="geometry" />
        </mxCell>
        <mxCell id="SwGKeSVZPL9AItlMTAbg-42" value="&lt;span style=&quot;color: rgb(0, 0, 0); font-family: Helvetica; font-size: 12px; font-style: normal; font-variant-ligatures: normal; font-variant-caps: normal; font-weight: 400; letter-spacing: normal; orphans: 2; text-align: center; text-indent: 0px; text-transform: none; widows: 2; word-spacing: 0px; -webkit-text-stroke-width: 0px; white-space: normal; background-color: rgb(251, 251, 251); text-decoration-thickness: initial; text-decoration-style: initial; text-decoration-color: initial; display: inline !important; float: none;&quot;&gt;CName&lt;/span&gt;" style="ellipse;whiteSpace=wrap;html=1;align=center;" parent="1" vertex="1">
          <mxGeometry y="270" width="90" height="25" as="geometry" />
        </mxCell>
        <mxCell id="SwGKeSVZPL9AItlMTAbg-51" value="" style="endArrow=none;html=1;rounded=0;exitX=0.5;exitY=1;exitDx=0;exitDy=0;entryX=0.5;entryY=0;entryDx=0;entryDy=0;" parent="1" source="SwGKeSVZPL9AItlMTAbg-34" target="SwGKeSVZPL9AItlMTAbg-38" edge="1">
          <mxGeometry relative="1" as="geometry">
            <mxPoint x="169" y="202" as="sourcePoint" />
            <mxPoint x="250" y="230" as="targetPoint" />
          </mxGeometry>
        </mxCell>
        <mxCell id="SwGKeSVZPL9AItlMTAbg-52" value="" style="endArrow=none;html=1;rounded=0;exitX=1;exitY=0.5;exitDx=0;exitDy=0;entryX=0;entryY=0.5;entryDx=0;entryDy=0;" parent="1" source="SwGKeSVZPL9AItlMTAbg-41" target="SwGKeSVZPL9AItlMTAbg-38" edge="1">
          <mxGeometry relative="1" as="geometry">
            <mxPoint x="178" y="210" as="sourcePoint" />
            <mxPoint x="178" y="251" as="targetPoint" />
          </mxGeometry>
        </mxCell>
        <mxCell id="SwGKeSVZPL9AItlMTAbg-53" value="" style="endArrow=none;html=1;rounded=0;exitX=1;exitY=0.5;exitDx=0;exitDy=0;entryX=0;entryY=0.5;entryDx=0;entryDy=0;" parent="1" source="SwGKeSVZPL9AItlMTAbg-42" target="SwGKeSVZPL9AItlMTAbg-38" edge="1">
          <mxGeometry relative="1" as="geometry">
            <mxPoint x="188" y="220" as="sourcePoint" />
            <mxPoint x="188" y="261" as="targetPoint" />
          </mxGeometry>
        </mxCell>
        <mxCell id="SwGKeSVZPL9AItlMTAbg-55" value="Has" style="rhombus;whiteSpace=wrap;html=1;glass=0;rounded=0;shadow=0;" parent="1" vertex="1">
          <mxGeometry x="275" y="241" width="99.25" height="40" as="geometry" />
        </mxCell>
        <mxCell id="SwGKeSVZPL9AItlMTAbg-59" value="" style="endArrow=none;html=1;rounded=0;exitX=0;exitY=0.5;exitDx=0;exitDy=0;entryX=1;entryY=0.5;entryDx=0;entryDy=0;" parent="1" source="SwGKeSVZPL9AItlMTAbg-55" target="SwGKeSVZPL9AItlMTAbg-38" edge="1">
          <mxGeometry relative="1" as="geometry">
            <mxPoint x="178" y="210" as="sourcePoint" />
            <mxPoint x="179" y="251" as="targetPoint" />
          </mxGeometry>
        </mxCell>
        <mxCell id="SwGKeSVZPL9AItlMTAbg-60" value="Courses" style="whiteSpace=wrap;html=1;align=center;glass=0;rounded=0;shadow=0;" parent="1" vertex="1">
          <mxGeometry x="527.01" y="241" width="97" height="40" as="geometry" />
        </mxCell>
        <mxCell id="SwGKeSVZPL9AItlMTAbg-62" value="Instructor" style="whiteSpace=wrap;html=1;align=center;glass=0;rounded=0;shadow=0;" parent="1" vertex="1">
          <mxGeometry x="710" y="150" width="97" height="40" as="geometry" />
        </mxCell>
        <mxCell id="SwGKeSVZPL9AItlMTAbg-63" value="Add" style="rhombus;whiteSpace=wrap;html=1;glass=0;rounded=0;shadow=0;" parent="1" vertex="1">
          <mxGeometry x="709" y="240" width="99.25" height="40" as="geometry" />
        </mxCell>
        <mxCell id="SwGKeSVZPL9AItlMTAbg-66" value="&lt;b&gt;Instructor _Id&lt;/b&gt;" style="ellipse;whiteSpace=wrap;html=1;align=center;" parent="1" vertex="1">
          <mxGeometry x="730" y="60" width="90" height="25" as="geometry" />
        </mxCell>
        <mxCell id="SwGKeSVZPL9AItlMTAbg-67" value="Name" style="ellipse;whiteSpace=wrap;html=1;align=center;" parent="1" vertex="1">
          <mxGeometry x="660" y="30" width="90" height="25" as="geometry" />
        </mxCell>
        <mxCell id="SwGKeSVZPL9AItlMTAbg-69" value="Email" style="ellipse;whiteSpace=wrap;html=1;align=center;" parent="1" vertex="1">
          <mxGeometry x="570" y="50" width="90" height="25" as="geometry" />
        </mxCell>
        <mxCell id="SwGKeSVZPL9AItlMTAbg-75" value="OTP" style="ellipse;whiteSpace=wrap;html=1;align=center;" parent="1" vertex="1">
          <mxGeometry x="530" y="10" width="90" height="25" as="geometry" />
        </mxCell>
        <mxCell id="SwGKeSVZPL9AItlMTAbg-77" value="&lt;b&gt;Course_Id&lt;/b&gt;" style="ellipse;whiteSpace=wrap;html=1;align=center;" parent="1" vertex="1">
          <mxGeometry x="397" width="90" height="25" as="geometry" />
        </mxCell>
        <mxCell id="SwGKeSVZPL9AItlMTAbg-78" value="C_Title" style="ellipse;whiteSpace=wrap;html=1;align=center;" parent="1" vertex="1">
          <mxGeometry x="397" y="38" width="90" height="25" as="geometry" />
        </mxCell>
        <mxCell id="SwGKeSVZPL9AItlMTAbg-79" value="C_Description&amp;nbsp;" style="ellipse;whiteSpace=wrap;html=1;align=center;" parent="1" vertex="1">
          <mxGeometry x="397" y="80" width="90" height="25" as="geometry" />
        </mxCell>
        <mxCell id="SwGKeSVZPL9AItlMTAbg-80" value="Instructor_id" style="ellipse;whiteSpace=wrap;html=1;align=center;" parent="1" vertex="1">
          <mxGeometry x="397" y="160" width="90" height="25" as="geometry" />
        </mxCell>
        <mxCell id="SwGKeSVZPL9AItlMTAbg-82" value="C_Price" style="ellipse;whiteSpace=wrap;html=1;align=center;" parent="1" vertex="1">
          <mxGeometry x="397" y="119" width="90" height="25" as="geometry" />
        </mxCell>
        <mxCell id="SwGKeSVZPL9AItlMTAbg-84" value="C_Publish" style="ellipse;whiteSpace=wrap;html=1;align=center;" parent="1" vertex="1">
          <mxGeometry x="397" y="200" width="90" height="25" as="geometry" />
        </mxCell>
        <mxCell id="SwGKeSVZPL9AItlMTAbg-91" value="Student" style="whiteSpace=wrap;html=1;align=center;glass=0;rounded=0;shadow=0;" parent="1" vertex="1">
          <mxGeometry x="576" y="420" width="97" height="40" as="geometry" />
        </mxCell>
        <mxCell id="SwGKeSVZPL9AItlMTAbg-110" value="Password&amp;nbsp;" style="ellipse;whiteSpace=wrap;html=1;align=center;" parent="1" vertex="1">
          <mxGeometry x="570" y="90" width="90" height="25" as="geometry" />
        </mxCell>
        <mxCell id="SwGKeSVZPL9AItlMTAbg-111" value="" style="endArrow=none;html=1;rounded=0;exitX=0.5;exitY=0;exitDx=0;exitDy=0;entryX=1;entryY=0.5;entryDx=0;entryDy=0;" parent="1" source="SwGKeSVZPL9AItlMTAbg-60" target="SwGKeSVZPL9AItlMTAbg-84" edge="1">
          <mxGeometry relative="1" as="geometry">
            <mxPoint x="557.01" y="310" as="sourcePoint" />
            <mxPoint x="493.01" y="310" as="targetPoint" />
          </mxGeometry>
        </mxCell>
        <mxCell id="SwGKeSVZPL9AItlMTAbg-112" value="" style="endArrow=none;html=1;rounded=0;entryX=1;entryY=0.5;entryDx=0;entryDy=0;exitX=0.5;exitY=0;exitDx=0;exitDy=0;" parent="1" source="SwGKeSVZPL9AItlMTAbg-60" target="SwGKeSVZPL9AItlMTAbg-80" edge="1">
          <mxGeometry relative="1" as="geometry">
            <mxPoint x="557" y="260" as="sourcePoint" />
            <mxPoint x="497" y="223" as="targetPoint" />
          </mxGeometry>
        </mxCell>
        <mxCell id="SwGKeSVZPL9AItlMTAbg-113" value="" style="endArrow=none;html=1;rounded=0;entryX=1;entryY=0.5;entryDx=0;entryDy=0;exitX=0.5;exitY=0;exitDx=0;exitDy=0;" parent="1" source="SwGKeSVZPL9AItlMTAbg-60" target="SwGKeSVZPL9AItlMTAbg-82" edge="1">
          <mxGeometry relative="1" as="geometry">
            <mxPoint x="557" y="250" as="sourcePoint" />
            <mxPoint x="507" y="233" as="targetPoint" />
          </mxGeometry>
        </mxCell>
        <mxCell id="SwGKeSVZPL9AItlMTAbg-114" value="" style="endArrow=none;html=1;rounded=0;exitX=0.5;exitY=0;exitDx=0;exitDy=0;entryX=1;entryY=0.5;entryDx=0;entryDy=0;" parent="1" source="SwGKeSVZPL9AItlMTAbg-60" target="SwGKeSVZPL9AItlMTAbg-79" edge="1">
          <mxGeometry relative="1" as="geometry">
            <mxPoint x="587" y="291" as="sourcePoint" />
            <mxPoint x="517" y="243" as="targetPoint" />
          </mxGeometry>
        </mxCell>
        <mxCell id="SwGKeSVZPL9AItlMTAbg-115" value="" style="endArrow=none;html=1;rounded=0;exitX=0.5;exitY=0;exitDx=0;exitDy=0;entryX=1;entryY=0.5;entryDx=0;entryDy=0;" parent="1" source="SwGKeSVZPL9AItlMTAbg-60" target="SwGKeSVZPL9AItlMTAbg-78" edge="1">
          <mxGeometry relative="1" as="geometry">
            <mxPoint x="597" y="301" as="sourcePoint" />
            <mxPoint x="527" y="253" as="targetPoint" />
          </mxGeometry>
        </mxCell>
        <mxCell id="SwGKeSVZPL9AItlMTAbg-116" value="" style="endArrow=none;html=1;rounded=0;exitX=0.5;exitY=0;exitDx=0;exitDy=0;entryX=1;entryY=0.5;entryDx=0;entryDy=0;" parent="1" source="SwGKeSVZPL9AItlMTAbg-60" target="SwGKeSVZPL9AItlMTAbg-77" edge="1">
          <mxGeometry relative="1" as="geometry">
            <mxPoint x="607" y="311" as="sourcePoint" />
            <mxPoint x="537" y="263" as="targetPoint" />
          </mxGeometry>
        </mxCell>
        <mxCell id="SwGKeSVZPL9AItlMTAbg-119" value="" style="endArrow=none;html=1;rounded=0;exitX=0;exitY=0.5;exitDx=0;exitDy=0;entryX=1;entryY=0.5;entryDx=0;entryDy=0;" parent="1" source="SwGKeSVZPL9AItlMTAbg-63" target="SwGKeSVZPL9AItlMTAbg-60" edge="1">
          <mxGeometry relative="1" as="geometry">
            <mxPoint x="591.47" y="210" as="sourcePoint" />
            <mxPoint x="592.47" y="251" as="targetPoint" />
          </mxGeometry>
        </mxCell>
        <mxCell id="SwGKeSVZPL9AItlMTAbg-122" value="" style="endArrow=none;html=1;rounded=0;exitX=0;exitY=0.5;exitDx=0;exitDy=0;entryX=1;entryY=0.5;entryDx=0;entryDy=0;" parent="1" source="SwGKeSVZPL9AItlMTAbg-60" target="SwGKeSVZPL9AItlMTAbg-55" edge="1">
          <mxGeometry relative="1" as="geometry">
            <mxPoint x="634" y="320" as="sourcePoint" />
            <mxPoint x="487" y="320" as="targetPoint" />
          </mxGeometry>
        </mxCell>
        <mxCell id="SwGKeSVZPL9AItlMTAbg-123" value="&lt;b&gt;Student_Id&lt;/b&gt;" style="ellipse;whiteSpace=wrap;html=1;align=center;" parent="1" vertex="1">
          <mxGeometry x="717" y="320" width="90" height="25" as="geometry" />
        </mxCell>
        <mxCell id="SwGKeSVZPL9AItlMTAbg-124" value="Name" style="ellipse;whiteSpace=wrap;html=1;align=center;" parent="1" vertex="1">
          <mxGeometry x="717" y="350" width="90" height="25" as="geometry" />
        </mxCell>
        <mxCell id="SwGKeSVZPL9AItlMTAbg-125" value="Email" style="ellipse;whiteSpace=wrap;html=1;align=center;" parent="1" vertex="1">
          <mxGeometry x="717" y="413" width="90" height="25" as="geometry" />
        </mxCell>
        <mxCell id="SwGKeSVZPL9AItlMTAbg-126" value="OTP" style="ellipse;whiteSpace=wrap;html=1;align=center;" parent="1" vertex="1">
          <mxGeometry x="717" y="460" width="90" height="25" as="geometry" />
        </mxCell>
        <mxCell id="SwGKeSVZPL9AItlMTAbg-132" value="Password&amp;nbsp;" style="ellipse;whiteSpace=wrap;html=1;align=center;" parent="1" vertex="1">
          <mxGeometry x="717" y="382" width="90" height="25" as="geometry" />
        </mxCell>
        <mxCell id="SwGKeSVZPL9AItlMTAbg-134" value="Browse&amp;nbsp;" style="rhombus;whiteSpace=wrap;html=1;glass=0;rounded=0;shadow=0;" parent="1" vertex="1">
          <mxGeometry x="525.89" y="340" width="99.25" height="40" as="geometry" />
        </mxCell>
        <mxCell id="SwGKeSVZPL9AItlMTAbg-136" value="" style="endArrow=none;html=1;rounded=0;exitX=0.5;exitY=0;exitDx=0;exitDy=0;entryX=0.5;entryY=1;entryDx=0;entryDy=0;" parent="1" source="SwGKeSVZPL9AItlMTAbg-134" target="SwGKeSVZPL9AItlMTAbg-60" edge="1">
          <mxGeometry relative="1" as="geometry">
            <mxPoint x="604.97" y="340" as="sourcePoint" />
            <mxPoint x="604.97" y="281" as="targetPoint" />
          </mxGeometry>
        </mxCell>
        <mxCell id="SwGKeSVZPL9AItlMTAbg-137" value="Has" style="rhombus;whiteSpace=wrap;html=1;glass=0;rounded=0;shadow=0;" parent="1" vertex="1">
          <mxGeometry x="342" y="320" width="99.25" height="40" as="geometry" />
        </mxCell>
        <mxCell id="SwGKeSVZPL9AItlMTAbg-138" value="&lt;b&gt;Cart_Id&lt;/b&gt;" style="ellipse;whiteSpace=wrap;html=1;align=center;" parent="1" vertex="1">
          <mxGeometry x="16" y="335" width="90" height="25" as="geometry" />
        </mxCell>
        <mxCell id="SwGKeSVZPL9AItlMTAbg-139" value="" style="endArrow=none;html=1;rounded=0;exitX=0;exitY=1;exitDx=0;exitDy=0;entryX=1;entryY=0;entryDx=0;entryDy=0;" parent="1" source="SwGKeSVZPL9AItlMTAbg-60" target="SwGKeSVZPL9AItlMTAbg-137" edge="1">
          <mxGeometry relative="1" as="geometry">
            <mxPoint x="616" y="449" as="sourcePoint" />
            <mxPoint x="616" y="390" as="targetPoint" />
          </mxGeometry>
        </mxCell>
        <mxCell id="SwGKeSVZPL9AItlMTAbg-140" value="Cart" style="whiteSpace=wrap;html=1;align=center;glass=0;rounded=0;shadow=0;" parent="1" vertex="1">
          <mxGeometry x="149" y="397" width="97" height="40" as="geometry" />
        </mxCell>
        <mxCell id="SwGKeSVZPL9AItlMTAbg-141" value="" style="endArrow=none;html=1;rounded=0;entryX=0.5;entryY=0;entryDx=0;entryDy=0;exitX=0;exitY=0.5;exitDx=0;exitDy=0;" parent="1" source="SwGKeSVZPL9AItlMTAbg-137" target="SwGKeSVZPL9AItlMTAbg-140" edge="1">
          <mxGeometry relative="1" as="geometry">
            <mxPoint x="420" y="370" as="sourcePoint" />
            <mxPoint x="240.00000000000023" y="427" as="targetPoint" />
            <Array as="points">
              <mxPoint x="198" y="340" />
            </Array>
          </mxGeometry>
        </mxCell>
        <mxCell id="SwGKeSVZPL9AItlMTAbg-142" value="&lt;span style=&quot;color: rgb(0, 0, 0); font-family: Helvetica; font-size: 12px; font-style: normal; font-variant-ligatures: normal; font-variant-caps: normal; font-weight: 400; letter-spacing: normal; orphans: 2; text-align: center; text-indent: 0px; text-transform: none; widows: 2; word-spacing: 0px; -webkit-text-stroke-width: 0px; white-space: normal; background-color: rgb(251, 251, 251); text-decoration-thickness: initial; text-decoration-style: initial; text-decoration-color: initial; display: inline !important; float: none;&quot;&gt;Student_Id&lt;/span&gt;" style="ellipse;whiteSpace=wrap;html=1;align=center;" parent="1" vertex="1">
          <mxGeometry x="16" y="372" width="90" height="25" as="geometry" />
        </mxCell>
        <mxCell id="SwGKeSVZPL9AItlMTAbg-143" value="Course_Id" style="ellipse;whiteSpace=wrap;html=1;align=center;" parent="1" vertex="1">
          <mxGeometry x="16" y="412" width="90" height="25" as="geometry" />
        </mxCell>
        <mxCell id="SwGKeSVZPL9AItlMTAbg-144" value="Cart Add On" style="ellipse;whiteSpace=wrap;html=1;align=center;" parent="1" vertex="1">
          <mxGeometry x="16" y="454" width="90" height="25" as="geometry" />
        </mxCell>
        <mxCell id="SwGKeSVZPL9AItlMTAbg-145" value="" style="endArrow=none;html=1;rounded=0;exitX=0;exitY=0.5;exitDx=0;exitDy=0;entryX=1;entryY=0.5;entryDx=0;entryDy=0;" parent="1" source="SwGKeSVZPL9AItlMTAbg-140" edge="1">
          <mxGeometry relative="1" as="geometry">
            <mxPoint x="190" y="271" as="sourcePoint" />
            <mxPoint x="106" y="347.5" as="targetPoint" />
          </mxGeometry>
        </mxCell>
        <mxCell id="SwGKeSVZPL9AItlMTAbg-146" value="" style="endArrow=none;html=1;rounded=0;exitX=0;exitY=0.5;exitDx=0;exitDy=0;entryX=1;entryY=0.5;entryDx=0;entryDy=0;" parent="1" source="SwGKeSVZPL9AItlMTAbg-140" edge="1">
          <mxGeometry relative="1" as="geometry">
            <mxPoint x="159" y="427" as="sourcePoint" />
            <mxPoint x="106" y="384.5" as="targetPoint" />
          </mxGeometry>
        </mxCell>
        <mxCell id="SwGKeSVZPL9AItlMTAbg-147" value="" style="endArrow=none;html=1;rounded=0;entryX=1;entryY=0.5;entryDx=0;entryDy=0;exitX=0;exitY=0.5;exitDx=0;exitDy=0;" parent="1" source="SwGKeSVZPL9AItlMTAbg-140" edge="1">
          <mxGeometry relative="1" as="geometry">
            <mxPoint x="146" y="420" as="sourcePoint" />
            <mxPoint x="106" y="424.5" as="targetPoint" />
          </mxGeometry>
        </mxCell>
        <mxCell id="SwGKeSVZPL9AItlMTAbg-148" value="" style="endArrow=none;html=1;rounded=0;exitX=0;exitY=0.5;exitDx=0;exitDy=0;entryX=1;entryY=0.5;entryDx=0;entryDy=0;" parent="1" source="SwGKeSVZPL9AItlMTAbg-140" edge="1">
          <mxGeometry relative="1" as="geometry">
            <mxPoint x="179" y="447" as="sourcePoint" />
            <mxPoint x="106" y="466.5" as="targetPoint" />
          </mxGeometry>
        </mxCell>
        <mxCell id="SwGKeSVZPL9AItlMTAbg-149" value="Payment" style="whiteSpace=wrap;html=1;align=center;glass=0;rounded=0;shadow=0;" parent="1" vertex="1">
          <mxGeometry x="349" y="557" width="97" height="40" as="geometry" />
        </mxCell>
        <mxCell id="SwGKeSVZPL9AItlMTAbg-150" value="Make" style="rhombus;whiteSpace=wrap;html=1;glass=0;rounded=0;shadow=0;" parent="1" vertex="1">
          <mxGeometry x="298.75" y="487.5" width="99.25" height="40" as="geometry" />
        </mxCell>
        <mxCell id="SwGKeSVZPL9AItlMTAbg-152" value="" style="endArrow=none;html=1;rounded=0;entryX=0.5;entryY=1;entryDx=0;entryDy=0;exitX=0;exitY=0.5;exitDx=0;exitDy=0;" parent="1" source="SwGKeSVZPL9AItlMTAbg-150" target="SwGKeSVZPL9AItlMTAbg-140" edge="1">
          <mxGeometry relative="1" as="geometry">
            <mxPoint x="280" y="510" as="sourcePoint" />
            <mxPoint x="244.88" y="493" as="targetPoint" />
            <Array as="points">
              <mxPoint x="198" y="508" />
            </Array>
          </mxGeometry>
        </mxCell>
        <mxCell id="SwGKeSVZPL9AItlMTAbg-153" value="" style="endArrow=none;html=1;rounded=0;exitX=0.5;exitY=0;exitDx=0;exitDy=0;entryX=1;entryY=0.5;entryDx=0;entryDy=0;" parent="1" source="SwGKeSVZPL9AItlMTAbg-149" target="SwGKeSVZPL9AItlMTAbg-150" edge="1">
          <mxGeometry relative="1" as="geometry">
            <mxPoint x="607" y="568.5" as="sourcePoint" />
            <mxPoint x="347.375" y="527.5" as="targetPoint" />
          </mxGeometry>
        </mxCell>
        <mxCell id="SwGKeSVZPL9AItlMTAbg-154" value="&lt;b&gt;Payment_ID&lt;/b&gt;" style="ellipse;whiteSpace=wrap;html=1;align=center;" parent="1" vertex="1">
          <mxGeometry x="218.12" y="534" width="90" height="25" as="geometry" />
        </mxCell>
        <mxCell id="SwGKeSVZPL9AItlMTAbg-155" value="Payment_Method" style="ellipse;whiteSpace=wrap;html=1;align=center;" parent="1" vertex="1">
          <mxGeometry x="487" y="598" width="120" height="25" as="geometry" />
        </mxCell>
        <mxCell id="SwGKeSVZPL9AItlMTAbg-156" value="Course_Id" style="ellipse;whiteSpace=wrap;html=1;align=center;" parent="1" vertex="1">
          <mxGeometry x="490" y="532" width="90" height="25" as="geometry" />
        </mxCell>
        <mxCell id="SwGKeSVZPL9AItlMTAbg-158" value="Student_Id" style="ellipse;whiteSpace=wrap;html=1;align=center;" parent="1" vertex="1">
          <mxGeometry x="222" y="598" width="90" height="25" as="geometry" />
        </mxCell>
        <mxCell id="SwGKeSVZPL9AItlMTAbg-160" value="" style="endArrow=none;html=1;rounded=0;exitX=0;exitY=0.5;exitDx=0;exitDy=0;entryX=1;entryY=0.5;entryDx=0;entryDy=0;" parent="1" source="SwGKeSVZPL9AItlMTAbg-149" target="SwGKeSVZPL9AItlMTAbg-154" edge="1">
          <mxGeometry relative="1" as="geometry">
            <mxPoint x="411" y="567" as="sourcePoint" />
            <mxPoint x="305" y="527" as="targetPoint" />
          </mxGeometry>
        </mxCell>
        <mxCell id="SwGKeSVZPL9AItlMTAbg-161" value="" style="endArrow=none;html=1;rounded=0;exitX=0;exitY=0.5;exitDx=0;exitDy=0;entryX=1;entryY=0.5;entryDx=0;entryDy=0;" parent="1" source="SwGKeSVZPL9AItlMTAbg-149" target="SwGKeSVZPL9AItlMTAbg-158" edge="1">
          <mxGeometry relative="1" as="geometry">
            <mxPoint x="362" y="587" as="sourcePoint" />
            <mxPoint x="322" y="565" as="targetPoint" />
          </mxGeometry>
        </mxCell>
        <mxCell id="SwGKeSVZPL9AItlMTAbg-164" value="" style="endArrow=none;html=1;rounded=0;exitX=1;exitY=0.5;exitDx=0;exitDy=0;entryX=0;entryY=0.5;entryDx=0;entryDy=0;" parent="1" source="qOU6VOcznKCTGPe6LT-z-8" target="SwGKeSVZPL9AItlMTAbg-149" edge="1">
          <mxGeometry relative="1" as="geometry">
            <mxPoint x="480" y="602.5" as="sourcePoint" />
            <mxPoint x="342" y="585" as="targetPoint" />
          </mxGeometry>
        </mxCell>
        <mxCell id="SwGKeSVZPL9AItlMTAbg-166" value="" style="endArrow=none;html=1;rounded=0;exitX=0;exitY=0.5;exitDx=0;exitDy=0;entryX=1;entryY=0.5;entryDx=0;entryDy=0;" parent="1" source="SwGKeSVZPL9AItlMTAbg-155" target="SwGKeSVZPL9AItlMTAbg-149" edge="1">
          <mxGeometry relative="1" as="geometry">
            <mxPoint x="482" y="630" as="sourcePoint" />
            <mxPoint x="459" y="587" as="targetPoint" />
          </mxGeometry>
        </mxCell>
        <mxCell id="SwGKeSVZPL9AItlMTAbg-167" value="" style="endArrow=none;html=1;rounded=0;exitX=0;exitY=0.5;exitDx=0;exitDy=0;entryX=1;entryY=0.5;entryDx=0;entryDy=0;" parent="1" source="SwGKeSVZPL9AItlMTAbg-156" target="SwGKeSVZPL9AItlMTAbg-149" edge="1">
          <mxGeometry relative="1" as="geometry">
            <mxPoint x="567" y="469" as="sourcePoint" />
            <mxPoint x="407" y="427" as="targetPoint" />
          </mxGeometry>
        </mxCell>
        <mxCell id="SwGKeSVZPL9AItlMTAbg-168" value="Enrolled" style="rhombus;whiteSpace=wrap;html=1;glass=0;rounded=0;shadow=0;" parent="1" vertex="1">
          <mxGeometry x="346.87" y="657" width="99.25" height="40" as="geometry" />
        </mxCell>
        <mxCell id="SwGKeSVZPL9AItlMTAbg-169" value="" style="endArrow=none;html=1;rounded=0;exitX=0.5;exitY=0;exitDx=0;exitDy=0;entryX=0.5;entryY=1;entryDx=0;entryDy=0;" parent="1" source="SwGKeSVZPL9AItlMTAbg-168" target="SwGKeSVZPL9AItlMTAbg-149" edge="1">
          <mxGeometry relative="1" as="geometry">
            <mxPoint x="454" y="687" as="sourcePoint" />
            <mxPoint x="414" y="720" as="targetPoint" />
          </mxGeometry>
        </mxCell>
        <mxCell id="SwGKeSVZPL9AItlMTAbg-171" value="" style="endArrow=none;html=1;rounded=0;entryX=0.5;entryY=1;entryDx=0;entryDy=0;exitX=0.5;exitY=0;exitDx=0;exitDy=0;" parent="1" source="SwGKeSVZPL9AItlMTAbg-172" target="SwGKeSVZPL9AItlMTAbg-168" edge="1">
          <mxGeometry relative="1" as="geometry">
            <mxPoint x="400" y="800" as="sourcePoint" />
            <mxPoint x="400.97" y="730" as="targetPoint" />
          </mxGeometry>
        </mxCell>
        <mxCell id="SwGKeSVZPL9AItlMTAbg-172" value="&lt;span style=&quot;background-color: initial;&quot;&gt;Courses&lt;/span&gt;" style="whiteSpace=wrap;html=1;align=center;glass=0;rounded=0;shadow=0;" parent="1" vertex="1">
          <mxGeometry x="348" y="756" width="97" height="40" as="geometry" />
        </mxCell>
        <mxCell id="SwGKeSVZPL9AItlMTAbg-173" value="Student_Id" style="ellipse;whiteSpace=wrap;html=1;align=center;" parent="1" vertex="1">
          <mxGeometry x="266" y="811" width="90" height="25" as="geometry" />
        </mxCell>
        <mxCell id="SwGKeSVZPL9AItlMTAbg-174" value="Course_Id" style="ellipse;whiteSpace=wrap;html=1;align=center;" parent="1" vertex="1">
          <mxGeometry x="351" y="830" width="90" height="25" as="geometry" />
        </mxCell>
        <mxCell id="SwGKeSVZPL9AItlMTAbg-175" value="Progress" style="ellipse;whiteSpace=wrap;html=1;align=center;" parent="1" vertex="1">
          <mxGeometry x="439" y="811" width="90" height="25" as="geometry" />
        </mxCell>
        <mxCell id="SwGKeSVZPL9AItlMTAbg-180" value="Add" style="rhombus;whiteSpace=wrap;html=1;glass=0;rounded=0;shadow=0;" parent="1" vertex="1">
          <mxGeometry x="558.75" y="757" width="99.25" height="40" as="geometry" />
        </mxCell>
        <mxCell id="SwGKeSVZPL9AItlMTAbg-181" value="" style="endArrow=none;html=1;rounded=0;exitX=1;exitY=0.5;exitDx=0;exitDy=0;" parent="1" source="SwGKeSVZPL9AItlMTAbg-172" target="SwGKeSVZPL9AItlMTAbg-180" edge="1">
          <mxGeometry relative="1" as="geometry">
            <mxPoint x="411" y="810" as="sourcePoint" />
            <mxPoint x="410" y="740" as="targetPoint" />
          </mxGeometry>
        </mxCell>
        <mxCell id="SwGKeSVZPL9AItlMTAbg-182" value="Rating &amp;amp; Review" style="whiteSpace=wrap;html=1;align=center;glass=0;rounded=0;shadow=0;" parent="1" vertex="1">
          <mxGeometry x="560" y="646" width="97" height="40" as="geometry" />
        </mxCell>
        <mxCell id="SwGKeSVZPL9AItlMTAbg-183" value="" style="endArrow=none;html=1;rounded=0;exitX=0.5;exitY=1;exitDx=0;exitDy=0;entryX=0.5;entryY=0;entryDx=0;entryDy=0;" parent="1" source="SwGKeSVZPL9AItlMTAbg-182" target="SwGKeSVZPL9AItlMTAbg-180" edge="1">
          <mxGeometry relative="1" as="geometry">
            <mxPoint x="608.5" y="686" as="sourcePoint" />
            <mxPoint x="606.375" y="757" as="targetPoint" />
          </mxGeometry>
        </mxCell>
        <mxCell id="SwGKeSVZPL9AItlMTAbg-184" value="&lt;b&gt;Student_Id&lt;/b&gt;" style="ellipse;whiteSpace=wrap;html=1;align=center;" parent="1" vertex="1">
          <mxGeometry x="701" y="572" width="90" height="25" as="geometry" />
        </mxCell>
        <mxCell id="SwGKeSVZPL9AItlMTAbg-185" value="S_Name" style="ellipse;whiteSpace=wrap;html=1;align=center;" parent="1" vertex="1">
          <mxGeometry x="701" y="611" width="90" height="25" as="geometry" />
        </mxCell>
        <mxCell id="SwGKeSVZPL9AItlMTAbg-186" value="Rating" style="ellipse;whiteSpace=wrap;html=1;align=center;" parent="1" vertex="1">
          <mxGeometry x="701" y="652.5" width="90" height="25" as="geometry" />
        </mxCell>
        <mxCell id="SwGKeSVZPL9AItlMTAbg-187" value="Review" style="ellipse;whiteSpace=wrap;html=1;align=center;" parent="1" vertex="1">
          <mxGeometry x="701" y="692" width="90" height="25" as="geometry" />
        </mxCell>
        <mxCell id="SwGKeSVZPL9AItlMTAbg-188" value="Course_Id" style="ellipse;whiteSpace=wrap;html=1;align=center;" parent="1" vertex="1">
          <mxGeometry x="701" y="732" width="90" height="25" as="geometry" />
        </mxCell>
        <mxCell id="SwGKeSVZPL9AItlMTAbg-189" value="Course_Name" style="ellipse;whiteSpace=wrap;html=1;align=center;" parent="1" vertex="1">
          <mxGeometry x="701" y="771" width="90" height="25" as="geometry" />
        </mxCell>
        <mxCell id="SwGKeSVZPL9AItlMTAbg-191" value="" style="endArrow=none;html=1;rounded=0;exitX=1;exitY=0.5;exitDx=0;exitDy=0;entryX=0;entryY=0.5;entryDx=0;entryDy=0;" parent="1" source="SwGKeSVZPL9AItlMTAbg-182" target="SwGKeSVZPL9AItlMTAbg-185" edge="1">
          <mxGeometry relative="1" as="geometry">
            <mxPoint x="633" y="710" as="sourcePoint" />
            <mxPoint x="680.000000000003" y="627.5" as="targetPoint" />
          </mxGeometry>
        </mxCell>
        <mxCell id="SwGKeSVZPL9AItlMTAbg-192" value="" style="endArrow=none;html=1;rounded=0;exitX=1;exitY=0.5;exitDx=0;exitDy=0;entryX=0;entryY=0.5;entryDx=0;entryDy=0;" parent="1" source="SwGKeSVZPL9AItlMTAbg-182" target="SwGKeSVZPL9AItlMTAbg-186" edge="1">
          <mxGeometry relative="1" as="geometry">
            <mxPoint x="633" y="710" as="sourcePoint" />
            <mxPoint x="680.000000000003" y="670" as="targetPoint" />
          </mxGeometry>
        </mxCell>
        <mxCell id="SwGKeSVZPL9AItlMTAbg-193" value="" style="endArrow=none;html=1;rounded=0;exitX=1;exitY=0.5;exitDx=0;exitDy=0;entryX=0;entryY=0.5;entryDx=0;entryDy=0;" parent="1" source="SwGKeSVZPL9AItlMTAbg-182" target="SwGKeSVZPL9AItlMTAbg-187" edge="1">
          <mxGeometry relative="1" as="geometry">
            <mxPoint x="643" y="720" as="sourcePoint" />
            <mxPoint x="680.000000000003" y="707.5" as="targetPoint" />
          </mxGeometry>
        </mxCell>
        <mxCell id="SwGKeSVZPL9AItlMTAbg-194" value="" style="endArrow=none;html=1;rounded=0;exitX=1;exitY=0.5;exitDx=0;exitDy=0;entryX=0;entryY=0.5;entryDx=0;entryDy=0;" parent="1" source="SwGKeSVZPL9AItlMTAbg-182" target="SwGKeSVZPL9AItlMTAbg-188" edge="1">
          <mxGeometry relative="1" as="geometry">
            <mxPoint x="653" y="730" as="sourcePoint" />
            <mxPoint x="680" y="747" as="targetPoint" />
          </mxGeometry>
        </mxCell>
        <mxCell id="SwGKeSVZPL9AItlMTAbg-195" value="" style="endArrow=none;html=1;rounded=0;exitX=1;exitY=0.5;exitDx=0;exitDy=0;entryX=0;entryY=0.5;entryDx=0;entryDy=0;" parent="1" source="SwGKeSVZPL9AItlMTAbg-182" target="SwGKeSVZPL9AItlMTAbg-189" edge="1">
          <mxGeometry relative="1" as="geometry">
            <mxPoint x="663" y="740" as="sourcePoint" />
            <mxPoint x="680" y="787" as="targetPoint" />
          </mxGeometry>
        </mxCell>
        <mxCell id="SwGKeSVZPL9AItlMTAbg-196" value="" style="endArrow=none;html=1;rounded=0;exitX=1;exitY=0.5;exitDx=0;exitDy=0;entryX=1;entryY=0.5;entryDx=0;entryDy=0;" parent="1" source="SwGKeSVZPL9AItlMTAbg-198" target="SwGKeSVZPL9AItlMTAbg-62" edge="1">
          <mxGeometry relative="1" as="geometry">
            <mxPoint x="501.6199999999999" y="935" as="sourcePoint" />
            <mxPoint x="820" y="210" as="targetPoint" />
            <Array as="points">
              <mxPoint x="820" y="971" />
              <mxPoint x="820" y="340" />
              <mxPoint x="820" y="270" />
              <mxPoint x="820" y="170" />
            </Array>
          </mxGeometry>
        </mxCell>
        <mxCell id="SwGKeSVZPL9AItlMTAbg-198" value="View" style="rhombus;whiteSpace=wrap;html=1;glass=0;rounded=0;shadow=0;" parent="1" vertex="1">
          <mxGeometry x="683.99" y="951" width="107.63" height="40" as="geometry" />
        </mxCell>
        <mxCell id="SwGKeSVZPL9AItlMTAbg-199" value="" style="endArrow=none;html=1;rounded=0;exitX=0.5;exitY=0;exitDx=0;exitDy=0;entryX=0.5;entryY=1;entryDx=0;entryDy=0;" parent="1" source="SwGKeSVZPL9AItlMTAbg-200" target="SwGKeSVZPL9AItlMTAbg-198" edge="1">
          <mxGeometry relative="1" as="geometry">
            <mxPoint x="603.99" y="1006.5699999999999" as="sourcePoint" />
            <mxPoint x="687" y="1007" as="targetPoint" />
          </mxGeometry>
        </mxCell>
        <mxCell id="SwGKeSVZPL9AItlMTAbg-200" value="Dashboard" style="whiteSpace=wrap;html=1;align=center;glass=0;rounded=0;shadow=0;" parent="1" vertex="1">
          <mxGeometry x="689.3" y="1019.5" width="97" height="40" as="geometry" />
        </mxCell>
        <mxCell id="SwGKeSVZPL9AItlMTAbg-201" value="Visualize" style="ellipse;whiteSpace=wrap;html=1;align=center;" parent="1" vertex="1">
          <mxGeometry x="529.37" y="933" width="90" height="25" as="geometry" />
        </mxCell>
        <mxCell id="SwGKeSVZPL9AItlMTAbg-202" value="&lt;font style=&quot;font-size: 10px;&quot;&gt;Created Courses&lt;/font&gt;" style="ellipse;whiteSpace=wrap;html=1;align=center;" parent="1" vertex="1">
          <mxGeometry x="693" y="1080" width="90" height="25" as="geometry" />
        </mxCell>
        <mxCell id="SwGKeSVZPL9AItlMTAbg-205" value="Statistics" style="ellipse;whiteSpace=wrap;html=1;align=center;" parent="1" vertex="1">
          <mxGeometry x="530.5" y="969" width="90" height="25" as="geometry" />
        </mxCell>
        <mxCell id="SwGKeSVZPL9AItlMTAbg-207" value="Revenew" style="ellipse;whiteSpace=wrap;html=1;align=center;" parent="1" vertex="1">
          <mxGeometry x="390" y="929" width="90" height="25" as="geometry" />
        </mxCell>
        <mxCell id="SwGKeSVZPL9AItlMTAbg-208" value="Student" style="ellipse;whiteSpace=wrap;html=1;align=center;" parent="1" vertex="1">
          <mxGeometry x="390" y="963" width="90" height="25" as="geometry" />
        </mxCell>
        <mxCell id="SwGKeSVZPL9AItlMTAbg-211" value="Total Courses" style="ellipse;whiteSpace=wrap;html=1;align=center;" parent="1" vertex="1">
          <mxGeometry x="450" y="1000" width="90" height="25" as="geometry" />
        </mxCell>
        <mxCell id="SwGKeSVZPL9AItlMTAbg-212" value="Total Student" style="ellipse;whiteSpace=wrap;html=1;align=center;" parent="1" vertex="1">
          <mxGeometry x="570" y="1020" width="90" height="25" as="geometry" />
        </mxCell>
        <mxCell id="SwGKeSVZPL9AItlMTAbg-213" value="Total Earnings&amp;nbsp;" style="ellipse;whiteSpace=wrap;html=1;align=center;" parent="1" vertex="1">
          <mxGeometry x="490" y="1040" width="90" height="25" as="geometry" />
        </mxCell>
        <mxCell id="SwGKeSVZPL9AItlMTAbg-217" value="&lt;b&gt;Course_Id&lt;/b&gt;" style="ellipse;whiteSpace=wrap;html=1;align=center;" parent="1" vertex="1">
          <mxGeometry x="640" y="1140" width="90" height="25" as="geometry" />
        </mxCell>
        <mxCell id="SwGKeSVZPL9AItlMTAbg-218" value="Course_Name" style="ellipse;whiteSpace=wrap;html=1;align=center;" parent="1" vertex="1">
          <mxGeometry x="737" y="1142" width="90" height="25" as="geometry" />
        </mxCell>
        <mxCell id="qOU6VOcznKCTGPe6LT-z-8" value="Amount" style="ellipse;whiteSpace=wrap;html=1;align=center;" parent="1" vertex="1">
          <mxGeometry x="150" y="564.5" width="90" height="25" as="geometry" />
        </mxCell>
        <mxCell id="qOU6VOcznKCTGPe6LT-z-10" value="" style="endArrow=none;html=1;rounded=0;exitX=0.5;exitY=1;exitDx=0;exitDy=0;entryX=1;entryY=0.5;entryDx=0;entryDy=0;" parent="1" source="SwGKeSVZPL9AItlMTAbg-91" target="qOU6VOcznKCTGPe6LT-z-11" edge="1">
          <mxGeometry relative="1" as="geometry">
            <mxPoint x="580.1200000000002" y="479" as="sourcePoint" />
            <mxPoint x="410.0000000000001" y="918" as="targetPoint" />
            <Array as="points">
              <mxPoint x="694.62" y="520" />
              <mxPoint x="804.62" y="520" />
              <mxPoint x="804.62" y="590" />
              <mxPoint x="805" y="900" />
            </Array>
          </mxGeometry>
        </mxCell>
        <mxCell id="qOU6VOcznKCTGPe6LT-z-12" value="" style="endArrow=none;html=1;rounded=0;exitX=1;exitY=0.5;exitDx=0;exitDy=0;entryX=0;entryY=0.5;entryDx=0;entryDy=0;" parent="1" source="qOU6VOcznKCTGPe6LT-z-13" target="qOU6VOcznKCTGPe6LT-z-11" edge="1">
          <mxGeometry relative="1" as="geometry">
            <mxPoint x="145.24" y="917.5699999999999" as="sourcePoint" />
            <mxPoint x="251.24" y="917.5699999999999" as="targetPoint" />
          </mxGeometry>
        </mxCell>
        <mxCell id="qOU6VOcznKCTGPe6LT-z-11" value="View" style="rhombus;whiteSpace=wrap;html=1;glass=0;rounded=0;shadow=0;" parent="1" vertex="1">
          <mxGeometry x="297.75" y="880" width="107.63" height="40" as="geometry" />
        </mxCell>
        <mxCell id="qOU6VOcznKCTGPe6LT-z-13" value="Dashboard" style="whiteSpace=wrap;html=1;align=center;glass=0;rounded=0;shadow=0;" parent="1" vertex="1">
          <mxGeometry x="160" y="880" width="97" height="40" as="geometry" />
        </mxCell>
        <mxCell id="qOU6VOcznKCTGPe6LT-z-16" value="Student Profile" style="ellipse;whiteSpace=wrap;html=1;align=center;" parent="1" vertex="1">
          <mxGeometry x="163.5" y="962" width="90" height="25" as="geometry" />
        </mxCell>
        <mxCell id="qOU6VOcznKCTGPe6LT-z-18" value="" style="endArrow=none;html=1;rounded=0;exitX=0.5;exitY=1;exitDx=0;exitDy=0;entryX=0.5;entryY=0;entryDx=0;entryDy=0;" parent="1" source="qOU6VOcznKCTGPe6LT-z-13" target="qOU6VOcznKCTGPe6LT-z-16" edge="1">
          <mxGeometry relative="1" as="geometry">
            <mxPoint x="173.07" y="1002" as="sourcePoint" />
            <mxPoint x="174" y="1040" as="targetPoint" />
          </mxGeometry>
        </mxCell>
        <mxCell id="qOU6VOcznKCTGPe6LT-z-19" value="Personal Detail" style="ellipse;whiteSpace=wrap;html=1;align=center;" parent="1" vertex="1">
          <mxGeometry x="110" y="1010" width="90" height="25" as="geometry" />
        </mxCell>
        <mxCell id="qOU6VOcznKCTGPe6LT-z-20" value="About" style="ellipse;whiteSpace=wrap;html=1;align=center;" parent="1" vertex="1">
          <mxGeometry x="230" y="1010" width="90" height="25" as="geometry" />
        </mxCell>
        <mxCell id="qOU6VOcznKCTGPe6LT-z-21" value="" style="endArrow=none;html=1;rounded=0;exitX=0.5;exitY=0;exitDx=0;exitDy=0;entryX=0.5;entryY=1;entryDx=0;entryDy=0;" parent="1" source="qOU6VOcznKCTGPe6LT-z-19" target="qOU6VOcznKCTGPe6LT-z-16" edge="1">
          <mxGeometry relative="1" as="geometry">
            <mxPoint x="150" y="1065" as="sourcePoint" />
            <mxPoint x="175" y="1023" as="targetPoint" />
          </mxGeometry>
        </mxCell>
        <mxCell id="qOU6VOcznKCTGPe6LT-z-22" value="" style="endArrow=none;html=1;rounded=0;exitX=0.5;exitY=0;exitDx=0;exitDy=0;entryX=0.5;entryY=1;entryDx=0;entryDy=0;" parent="1" source="qOU6VOcznKCTGPe6LT-z-20" target="qOU6VOcznKCTGPe6LT-z-16" edge="1">
          <mxGeometry relative="1" as="geometry">
            <mxPoint x="305" y="1050" as="sourcePoint" />
            <mxPoint x="330" y="1008" as="targetPoint" />
          </mxGeometry>
        </mxCell>
        <mxCell id="qOU6VOcznKCTGPe6LT-z-23" value="" style="endArrow=none;html=1;rounded=0;exitX=0.44;exitY=-0.027;exitDx=0;exitDy=0;entryX=0.5;entryY=1;entryDx=0;entryDy=0;exitPerimeter=0;" parent="1" source="qOU6VOcznKCTGPe6LT-z-13" target="qOU6VOcznKCTGPe6LT-z-24" edge="1">
          <mxGeometry relative="1" as="geometry">
            <mxPoint x="219" y="990" as="sourcePoint" />
            <mxPoint x="130" y="1000" as="targetPoint" />
          </mxGeometry>
        </mxCell>
        <mxCell id="qOU6VOcznKCTGPe6LT-z-24" value="Enrolled Course" style="ellipse;whiteSpace=wrap;html=1;align=center;" parent="1" vertex="1">
          <mxGeometry x="50" y="785" width="100" height="30" as="geometry" />
        </mxCell>
        <mxCell id="qOU6VOcznKCTGPe6LT-z-25" value="" style="endArrow=none;html=1;rounded=0;entryX=0.5;entryY=0;entryDx=0;entryDy=0;exitX=0.5;exitY=1;exitDx=0;exitDy=0;" parent="1" source="qOU6VOcznKCTGPe6LT-z-26" target="qOU6VOcznKCTGPe6LT-z-24" edge="1">
          <mxGeometry relative="1" as="geometry">
            <mxPoint x="40" y="755" as="sourcePoint" />
            <mxPoint x="60" y="825" as="targetPoint" />
          </mxGeometry>
        </mxCell>
        <mxCell id="qOU6VOcznKCTGPe6LT-z-26" value="Progress Track" style="ellipse;whiteSpace=wrap;html=1;align=center;" parent="1" vertex="1">
          <mxGeometry x="123.49" y="722.5" width="90" height="25" as="geometry" />
        </mxCell>
        <mxCell id="qOU6VOcznKCTGPe6LT-z-27" value="Course Name" style="ellipse;whiteSpace=wrap;html=1;align=center;" parent="1" vertex="1">
          <mxGeometry y="722.5" width="90" height="25" as="geometry" />
        </mxCell>
        <mxCell id="qOU6VOcznKCTGPe6LT-z-28" value="" style="endArrow=none;html=1;rounded=0;entryX=0.5;entryY=0;entryDx=0;entryDy=0;exitX=0.5;exitY=1;exitDx=0;exitDy=0;" parent="1" source="qOU6VOcznKCTGPe6LT-z-27" target="qOU6VOcznKCTGPe6LT-z-24" edge="1">
          <mxGeometry relative="1" as="geometry">
            <mxPoint x="178" y="758" as="sourcePoint" />
            <mxPoint x="110" y="795" as="targetPoint" />
          </mxGeometry>
        </mxCell>
        <mxCell id="qOU6VOcznKCTGPe6LT-z-29" value="Completed" style="ellipse;whiteSpace=wrap;html=1;align=center;" parent="1" vertex="1">
          <mxGeometry x="181.49" y="672" width="90" height="25" as="geometry" />
        </mxCell>
        <mxCell id="qOU6VOcznKCTGPe6LT-z-30" value="Incomplete&amp;nbsp;" style="ellipse;whiteSpace=wrap;html=1;align=center;" parent="1" vertex="1">
          <mxGeometry x="66.49000000000001" y="672" width="90" height="25" as="geometry" />
        </mxCell>
        <mxCell id="qOU6VOcznKCTGPe6LT-z-31" value="" style="endArrow=none;html=1;rounded=0;entryX=0.5;entryY=0;entryDx=0;entryDy=0;exitX=0.5;exitY=1;exitDx=0;exitDy=0;" parent="1" source="qOU6VOcznKCTGPe6LT-z-29" target="qOU6VOcznKCTGPe6LT-z-26" edge="1">
          <mxGeometry relative="1" as="geometry">
            <mxPoint x="55" y="758" as="sourcePoint" />
            <mxPoint x="110" y="795" as="targetPoint" />
          </mxGeometry>
        </mxCell>
        <mxCell id="qOU6VOcznKCTGPe6LT-z-32" value="" style="endArrow=none;html=1;rounded=0;entryX=0.5;entryY=0;entryDx=0;entryDy=0;exitX=0.5;exitY=1;exitDx=0;exitDy=0;" parent="1" source="qOU6VOcznKCTGPe6LT-z-30" target="qOU6VOcznKCTGPe6LT-z-26" edge="1">
          <mxGeometry relative="1" as="geometry">
            <mxPoint x="65" y="768" as="sourcePoint" />
            <mxPoint x="120" y="805" as="targetPoint" />
          </mxGeometry>
        </mxCell>
        <mxCell id="qOU6VOcznKCTGPe6LT-z-35" value="Setting" style="ellipse;whiteSpace=wrap;html=1;align=center;" parent="1" vertex="1">
          <mxGeometry x="46" y="1050" width="90" height="25" as="geometry" />
        </mxCell>
        <mxCell id="qOU6VOcznKCTGPe6LT-z-37" value="Profile Pic." style="ellipse;whiteSpace=wrap;html=1;align=center;" parent="1" vertex="1">
          <mxGeometry x="160" y="1080" width="90" height="25" as="geometry" />
        </mxCell>
        <mxCell id="qOU6VOcznKCTGPe6LT-z-38" value="Profile Info." style="ellipse;whiteSpace=wrap;html=1;align=center;" parent="1" vertex="1">
          <mxGeometry x="110" y="1110" width="90" height="25" as="geometry" />
        </mxCell>
        <mxCell id="qOU6VOcznKCTGPe6LT-z-39" value="Reset Pass." style="ellipse;whiteSpace=wrap;html=1;align=center;" parent="1" vertex="1">
          <mxGeometry x="60.000000000000014" y="1140" width="90" height="25" as="geometry" />
        </mxCell>
        <mxCell id="qOU6VOcznKCTGPe6LT-z-40" value="Delete A/C" style="ellipse;whiteSpace=wrap;html=1;align=center;" parent="1" vertex="1">
          <mxGeometry x="1.4210854715202004e-14" y="1110" width="90" height="25" as="geometry" />
        </mxCell>
        <mxCell id="qOU6VOcznKCTGPe6LT-z-45" value="" style="endArrow=none;html=1;rounded=0;exitX=1;exitY=0.5;exitDx=0;exitDy=0;entryX=0;entryY=0.5;entryDx=0;entryDy=0;" parent="1" source="SwGKeSVZPL9AItlMTAbg-201" target="SwGKeSVZPL9AItlMTAbg-200" edge="1">
          <mxGeometry relative="1" as="geometry">
            <mxPoint x="245" y="1060" as="sourcePoint" />
            <mxPoint x="219" y="1010" as="targetPoint" />
          </mxGeometry>
        </mxCell>
        <mxCell id="qOU6VOcznKCTGPe6LT-z-46" value="" style="endArrow=none;html=1;rounded=0;exitX=1;exitY=0.5;exitDx=0;exitDy=0;entryX=0;entryY=0.5;entryDx=0;entryDy=0;" parent="1" source="SwGKeSVZPL9AItlMTAbg-205" target="SwGKeSVZPL9AItlMTAbg-200" edge="1">
          <mxGeometry relative="1" as="geometry">
            <mxPoint x="629" y="985" as="sourcePoint" />
            <mxPoint x="699" y="1050" as="targetPoint" />
          </mxGeometry>
        </mxCell>
        <mxCell id="qOU6VOcznKCTGPe6LT-z-48" value="" style="endArrow=none;html=1;rounded=0;exitX=1;exitY=0.5;exitDx=0;exitDy=0;entryX=0;entryY=0.5;entryDx=0;entryDy=0;" parent="1" source="SwGKeSVZPL9AItlMTAbg-207" target="SwGKeSVZPL9AItlMTAbg-201" edge="1">
          <mxGeometry relative="1" as="geometry">
            <mxPoint x="635" y="1070" as="sourcePoint" />
            <mxPoint x="699" y="1050" as="targetPoint" />
          </mxGeometry>
        </mxCell>
        <mxCell id="qOU6VOcznKCTGPe6LT-z-49" value="" style="endArrow=none;html=1;rounded=0;exitX=1;exitY=0.5;exitDx=0;exitDy=0;entryX=0;entryY=0.5;entryDx=0;entryDy=0;" parent="1" source="SwGKeSVZPL9AItlMTAbg-208" target="SwGKeSVZPL9AItlMTAbg-201" edge="1">
          <mxGeometry relative="1" as="geometry">
            <mxPoint x="539" y="960" as="sourcePoint" />
            <mxPoint x="584" y="972" as="targetPoint" />
          </mxGeometry>
        </mxCell>
        <mxCell id="qOU6VOcznKCTGPe6LT-z-50" value="" style="endArrow=none;html=1;rounded=0;exitX=1;exitY=0.5;exitDx=0;exitDy=0;entryX=0.5;entryY=1;entryDx=0;entryDy=0;" parent="1" source="SwGKeSVZPL9AItlMTAbg-211" target="SwGKeSVZPL9AItlMTAbg-205" edge="1">
          <mxGeometry relative="1" as="geometry">
            <mxPoint x="630" y="1045" as="sourcePoint" />
            <mxPoint x="699" y="1050" as="targetPoint" />
          </mxGeometry>
        </mxCell>
        <mxCell id="qOU6VOcznKCTGPe6LT-z-51" value="" style="endArrow=none;html=1;rounded=0;entryX=0.5;entryY=1;entryDx=0;entryDy=0;" parent="1" source="SwGKeSVZPL9AItlMTAbg-213" target="SwGKeSVZPL9AItlMTAbg-205" edge="1">
          <mxGeometry relative="1" as="geometry">
            <mxPoint x="640" y="1055" as="sourcePoint" />
            <mxPoint x="580" y="1040" as="targetPoint" />
          </mxGeometry>
        </mxCell>
        <mxCell id="qOU6VOcznKCTGPe6LT-z-52" value="" style="endArrow=none;html=1;rounded=0;exitX=0.5;exitY=0;exitDx=0;exitDy=0;entryX=0.5;entryY=1;entryDx=0;entryDy=0;" parent="1" source="SwGKeSVZPL9AItlMTAbg-212" target="SwGKeSVZPL9AItlMTAbg-205" edge="1">
          <mxGeometry relative="1" as="geometry">
            <mxPoint x="650" y="1065" as="sourcePoint" />
            <mxPoint x="719" y="1070" as="targetPoint" />
          </mxGeometry>
        </mxCell>
        <mxCell id="qOU6VOcznKCTGPe6LT-z-53" value="" style="endArrow=none;html=1;rounded=0;exitX=1;exitY=0.5;exitDx=0;exitDy=0;entryX=0.5;entryY=0;entryDx=0;entryDy=0;" parent="1" source="SwGKeSVZPL9AItlMTAbg-18" target="SwGKeSVZPL9AItlMTAbg-15" edge="1">
          <mxGeometry relative="1" as="geometry">
            <mxPoint x="179" y="116" as="sourcePoint" />
            <mxPoint x="178" y="156" as="targetPoint" />
          </mxGeometry>
        </mxCell>
        <mxCell id="qOU6VOcznKCTGPe6LT-z-54" value="" style="endArrow=none;html=1;rounded=0;exitX=0;exitY=0.5;exitDx=0;exitDy=0;entryX=0.5;entryY=0;entryDx=0;entryDy=0;" parent="1" source="SwGKeSVZPL9AItlMTAbg-23" target="SwGKeSVZPL9AItlMTAbg-15" edge="1">
          <mxGeometry relative="1" as="geometry">
            <mxPoint x="189" y="126" as="sourcePoint" />
            <mxPoint x="188" y="166" as="targetPoint" />
          </mxGeometry>
        </mxCell>
        <mxCell id="qOU6VOcznKCTGPe6LT-z-55" value="" style="endArrow=none;html=1;rounded=0;exitX=0.5;exitY=1;exitDx=0;exitDy=0;entryX=0.5;entryY=0;entryDx=0;entryDy=0;" parent="1" source="SwGKeSVZPL9AItlMTAbg-22" target="SwGKeSVZPL9AItlMTAbg-15" edge="1">
          <mxGeometry relative="1" as="geometry">
            <mxPoint x="199" y="136" as="sourcePoint" />
            <mxPoint x="198" y="176" as="targetPoint" />
          </mxGeometry>
        </mxCell>
        <mxCell id="qOU6VOcznKCTGPe6LT-z-56" value="" style="endArrow=none;html=1;rounded=0;exitX=0.5;exitY=1;exitDx=0;exitDy=0;entryX=0.5;entryY=0;entryDx=0;entryDy=0;" parent="1" source="SwGKeSVZPL9AItlMTAbg-20" target="SwGKeSVZPL9AItlMTAbg-15" edge="1">
          <mxGeometry relative="1" as="geometry">
            <mxPoint x="209" y="146" as="sourcePoint" />
            <mxPoint x="208" y="186" as="targetPoint" />
          </mxGeometry>
        </mxCell>
        <mxCell id="qOU6VOcznKCTGPe6LT-z-57" value="" style="endArrow=none;html=1;rounded=0;exitX=0.5;exitY=1;exitDx=0;exitDy=0;entryX=0.5;entryY=0;entryDx=0;entryDy=0;" parent="1" source="SwGKeSVZPL9AItlMTAbg-125" target="SwGKeSVZPL9AItlMTAbg-126" edge="1">
          <mxGeometry relative="1" as="geometry">
            <mxPoint x="677" y="470" as="sourcePoint" />
            <mxPoint x="727" y="436" as="targetPoint" />
          </mxGeometry>
        </mxCell>
        <mxCell id="qOU6VOcznKCTGPe6LT-z-66" value="" style="endArrow=none;html=1;rounded=0;exitX=0.5;exitY=0;exitDx=0;exitDy=0;entryX=1;entryY=0.5;entryDx=0;entryDy=0;" parent="1" source="SwGKeSVZPL9AItlMTAbg-62" target="SwGKeSVZPL9AItlMTAbg-110" edge="1">
          <mxGeometry relative="1" as="geometry">
            <mxPoint x="720" y="270" as="sourcePoint" />
            <mxPoint x="664" y="271" as="targetPoint" />
          </mxGeometry>
        </mxCell>
        <mxCell id="qOU6VOcznKCTGPe6LT-z-67" value="" style="endArrow=none;html=1;rounded=0;exitX=0.5;exitY=0;exitDx=0;exitDy=0;entryX=1;entryY=0.5;entryDx=0;entryDy=0;" parent="1" source="SwGKeSVZPL9AItlMTAbg-62" target="SwGKeSVZPL9AItlMTAbg-69" edge="1">
          <mxGeometry relative="1" as="geometry">
            <mxPoint x="730" y="280" as="sourcePoint" />
            <mxPoint x="674" y="281" as="targetPoint" />
          </mxGeometry>
        </mxCell>
        <mxCell id="qOU6VOcznKCTGPe6LT-z-68" value="" style="endArrow=none;html=1;rounded=0;exitX=0.5;exitY=0;exitDx=0;exitDy=0;entryX=0.5;entryY=1;entryDx=0;entryDy=0;" parent="1" source="SwGKeSVZPL9AItlMTAbg-62" target="SwGKeSVZPL9AItlMTAbg-67" edge="1">
          <mxGeometry relative="1" as="geometry">
            <mxPoint x="740" y="290" as="sourcePoint" />
            <mxPoint x="684" y="291" as="targetPoint" />
          </mxGeometry>
        </mxCell>
        <mxCell id="qOU6VOcznKCTGPe6LT-z-69" value="" style="endArrow=none;html=1;rounded=0;exitX=0.5;exitY=0;exitDx=0;exitDy=0;entryX=0.5;entryY=1;entryDx=0;entryDy=0;" parent="1" source="SwGKeSVZPL9AItlMTAbg-62" target="SwGKeSVZPL9AItlMTAbg-66" edge="1">
          <mxGeometry relative="1" as="geometry">
            <mxPoint x="750" y="300" as="sourcePoint" />
            <mxPoint x="694" y="301" as="targetPoint" />
          </mxGeometry>
        </mxCell>
        <mxCell id="qOU6VOcznKCTGPe6LT-z-70" value="" style="endArrow=none;html=1;rounded=0;exitX=0.5;exitY=0;exitDx=0;exitDy=0;entryX=0.5;entryY=1;entryDx=0;entryDy=0;" parent="1" source="SwGKeSVZPL9AItlMTAbg-69" target="SwGKeSVZPL9AItlMTAbg-75" edge="1">
          <mxGeometry relative="1" as="geometry">
            <mxPoint x="760" y="310" as="sourcePoint" />
            <mxPoint x="704" y="311" as="targetPoint" />
          </mxGeometry>
        </mxCell>
        <mxCell id="qOU6VOcznKCTGPe6LT-z-72" value="" style="endArrow=none;html=1;rounded=0;exitX=0.5;exitY=1;exitDx=0;exitDy=0;entryX=0.5;entryY=0;entryDx=0;entryDy=0;" parent="1" source="SwGKeSVZPL9AItlMTAbg-202" target="SwGKeSVZPL9AItlMTAbg-217" edge="1">
          <mxGeometry relative="1" as="geometry">
            <mxPoint x="631" y="1013" as="sourcePoint" />
            <mxPoint x="699" y="1050" as="targetPoint" />
          </mxGeometry>
        </mxCell>
        <mxCell id="qOU6VOcznKCTGPe6LT-z-73" value="" style="endArrow=none;html=1;rounded=0;exitX=0.5;exitY=1;exitDx=0;exitDy=0;entryX=0.5;entryY=0;entryDx=0;entryDy=0;" parent="1" source="SwGKeSVZPL9AItlMTAbg-202" target="SwGKeSVZPL9AItlMTAbg-218" edge="1">
          <mxGeometry relative="1" as="geometry">
            <mxPoint x="641" y="1023" as="sourcePoint" />
            <mxPoint x="709" y="1060" as="targetPoint" />
          </mxGeometry>
        </mxCell>
        <mxCell id="qOU6VOcznKCTGPe6LT-z-74" value="" style="endArrow=none;html=1;rounded=0;exitX=0.5;exitY=1;exitDx=0;exitDy=0;entryX=0.5;entryY=0;entryDx=0;entryDy=0;" parent="1" source="SwGKeSVZPL9AItlMTAbg-200" target="SwGKeSVZPL9AItlMTAbg-202" edge="1">
          <mxGeometry relative="1" as="geometry">
            <mxPoint x="651" y="1033" as="sourcePoint" />
            <mxPoint x="719" y="1070" as="targetPoint" />
          </mxGeometry>
        </mxCell>
        <mxCell id="qOU6VOcznKCTGPe6LT-z-76" value="" style="endArrow=none;html=1;rounded=0;exitX=0.99;exitY=0.275;exitDx=0;exitDy=0;exitPerimeter=0;entryX=0.5;entryY=1;entryDx=0;entryDy=0;" parent="1" source="SwGKeSVZPL9AItlMTAbg-173" target="SwGKeSVZPL9AItlMTAbg-172" edge="1">
          <mxGeometry relative="1" as="geometry">
            <mxPoint x="459" y="786" as="sourcePoint" />
            <mxPoint x="520" y="787" as="targetPoint" />
          </mxGeometry>
        </mxCell>
        <mxCell id="qOU6VOcznKCTGPe6LT-z-77" value="" style="endArrow=none;html=1;rounded=0;exitX=0.5;exitY=1;exitDx=0;exitDy=0;entryX=0;entryY=0.5;entryDx=0;entryDy=0;" parent="1" source="SwGKeSVZPL9AItlMTAbg-172" target="SwGKeSVZPL9AItlMTAbg-175" edge="1">
          <mxGeometry relative="1" as="geometry">
            <mxPoint x="359" y="828" as="sourcePoint" />
            <mxPoint x="411" y="806" as="targetPoint" />
          </mxGeometry>
        </mxCell>
        <mxCell id="qOU6VOcznKCTGPe6LT-z-78" value="" style="endArrow=none;html=1;rounded=0;entryX=0.5;entryY=1;entryDx=0;entryDy=0;exitX=0.5;exitY=0;exitDx=0;exitDy=0;" parent="1" source="SwGKeSVZPL9AItlMTAbg-174" target="SwGKeSVZPL9AItlMTAbg-172" edge="1">
          <mxGeometry relative="1" as="geometry">
            <mxPoint x="401" y="838" as="sourcePoint" />
            <mxPoint x="421" y="816" as="targetPoint" />
          </mxGeometry>
        </mxCell>
        <mxCell id="qOU6VOcznKCTGPe6LT-z-79" value="Setting" style="ellipse;whiteSpace=wrap;html=1;align=center;" parent="1" vertex="1">
          <mxGeometry x="520" y="1080" width="90" height="25" as="geometry" />
        </mxCell>
        <mxCell id="qOU6VOcznKCTGPe6LT-z-80" value="" style="endArrow=none;html=1;rounded=0;exitX=0;exitY=0.5;exitDx=0;exitDy=0;entryX=1;entryY=0.5;entryDx=0;entryDy=0;" parent="1" source="SwGKeSVZPL9AItlMTAbg-200" target="qOU6VOcznKCTGPe6LT-z-79" edge="1">
          <mxGeometry relative="1" as="geometry">
            <mxPoint x="748" y="1115" as="sourcePoint" />
            <mxPoint x="695" y="1150" as="targetPoint" />
          </mxGeometry>
        </mxCell>
        <mxCell id="qOU6VOcznKCTGPe6LT-z-81" value="Profile Pic." style="ellipse;whiteSpace=wrap;html=1;align=center;" parent="1" vertex="1">
          <mxGeometry x="360" y="1070" width="90" height="25" as="geometry" />
        </mxCell>
        <mxCell id="qOU6VOcznKCTGPe6LT-z-82" value="Profile Info." style="ellipse;whiteSpace=wrap;html=1;align=center;" parent="1" vertex="1">
          <mxGeometry x="360" y="1040" width="90" height="25" as="geometry" />
        </mxCell>
        <mxCell id="qOU6VOcznKCTGPe6LT-z-83" value="Reset Pass." style="ellipse;whiteSpace=wrap;html=1;align=center;" parent="1" vertex="1">
          <mxGeometry x="360" y="1130" width="90" height="25" as="geometry" />
        </mxCell>
        <mxCell id="qOU6VOcznKCTGPe6LT-z-84" value="Delete A/C" style="ellipse;whiteSpace=wrap;html=1;align=center;" parent="1" vertex="1">
          <mxGeometry x="360" y="1100" width="90" height="25" as="geometry" />
        </mxCell>
        <mxCell id="qOU6VOcznKCTGPe6LT-z-85" value="" style="endArrow=none;html=1;rounded=0;exitX=0;exitY=0.5;exitDx=0;exitDy=0;entryX=1;entryY=0.5;entryDx=0;entryDy=0;" parent="1" source="qOU6VOcznKCTGPe6LT-z-79" target="qOU6VOcznKCTGPe6LT-z-82" edge="1">
          <mxGeometry relative="1" as="geometry">
            <mxPoint x="699" y="1050" as="sourcePoint" />
            <mxPoint x="620" y="1103" as="targetPoint" />
          </mxGeometry>
        </mxCell>
        <mxCell id="qOU6VOcznKCTGPe6LT-z-86" value="" style="endArrow=none;html=1;rounded=0;exitX=0;exitY=0.5;exitDx=0;exitDy=0;entryX=1;entryY=0.5;entryDx=0;entryDy=0;" parent="1" source="qOU6VOcznKCTGPe6LT-z-79" target="qOU6VOcznKCTGPe6LT-z-81" edge="1">
          <mxGeometry relative="1" as="geometry">
            <mxPoint x="709" y="1060" as="sourcePoint" />
            <mxPoint x="630" y="1113" as="targetPoint" />
          </mxGeometry>
        </mxCell>
        <mxCell id="qOU6VOcznKCTGPe6LT-z-87" value="" style="endArrow=none;html=1;rounded=0;exitX=0;exitY=0.5;exitDx=0;exitDy=0;entryX=1;entryY=0.5;entryDx=0;entryDy=0;" parent="1" source="qOU6VOcznKCTGPe6LT-z-79" target="qOU6VOcznKCTGPe6LT-z-84" edge="1">
          <mxGeometry relative="1" as="geometry">
            <mxPoint x="719" y="1070" as="sourcePoint" />
            <mxPoint x="640" y="1123" as="targetPoint" />
          </mxGeometry>
        </mxCell>
        <mxCell id="qOU6VOcznKCTGPe6LT-z-88" value="" style="endArrow=none;html=1;rounded=0;exitX=0;exitY=0.5;exitDx=0;exitDy=0;entryX=1;entryY=0.5;entryDx=0;entryDy=0;" parent="1" source="qOU6VOcznKCTGPe6LT-z-79" target="qOU6VOcznKCTGPe6LT-z-83" edge="1">
          <mxGeometry relative="1" as="geometry">
            <mxPoint x="729" y="1080" as="sourcePoint" />
            <mxPoint x="650" y="1133" as="targetPoint" />
          </mxGeometry>
        </mxCell>
        <mxCell id="qOU6VOcznKCTGPe6LT-z-89" value="" style="endArrow=none;html=1;rounded=0;exitX=0;exitY=0.5;exitDx=0;exitDy=0;entryX=0.5;entryY=0;entryDx=0;entryDy=0;" parent="1" source="qOU6VOcznKCTGPe6LT-z-13" target="qOU6VOcznKCTGPe6LT-z-35" edge="1">
          <mxGeometry relative="1" as="geometry">
            <mxPoint x="133" y="982" as="sourcePoint" />
            <mxPoint x="30" y="900" as="targetPoint" />
            <Array as="points">
              <mxPoint x="91" y="918" />
            </Array>
          </mxGeometry>
        </mxCell>
        <mxCell id="qOU6VOcznKCTGPe6LT-z-90" value="" style="endArrow=none;html=1;rounded=0;exitX=0.5;exitY=0;exitDx=0;exitDy=0;entryX=0.5;entryY=1;entryDx=0;entryDy=0;" parent="1" source="qOU6VOcznKCTGPe6LT-z-40" target="qOU6VOcznKCTGPe6LT-z-35" edge="1">
          <mxGeometry relative="1" as="geometry">
            <mxPoint x="223" y="917" as="sourcePoint" />
            <mxPoint x="120" y="835" as="targetPoint" />
          </mxGeometry>
        </mxCell>
        <mxCell id="qOU6VOcznKCTGPe6LT-z-91" value="" style="endArrow=none;html=1;rounded=0;entryX=0.5;entryY=1;entryDx=0;entryDy=0;exitX=0.5;exitY=0;exitDx=0;exitDy=0;" parent="1" source="qOU6VOcznKCTGPe6LT-z-39" target="qOU6VOcznKCTGPe6LT-z-35" edge="1">
          <mxGeometry relative="1" as="geometry">
            <mxPoint x="145" y="1140" as="sourcePoint" />
            <mxPoint x="75" y="1085" as="targetPoint" />
          </mxGeometry>
        </mxCell>
        <mxCell id="qOU6VOcznKCTGPe6LT-z-92" value="" style="endArrow=none;html=1;rounded=0;exitX=0.5;exitY=0;exitDx=0;exitDy=0;entryX=0.5;entryY=1;entryDx=0;entryDy=0;" parent="1" source="qOU6VOcznKCTGPe6LT-z-38" target="qOU6VOcznKCTGPe6LT-z-35" edge="1">
          <mxGeometry relative="1" as="geometry">
            <mxPoint x="65" y="1162" as="sourcePoint" />
            <mxPoint x="85" y="1095" as="targetPoint" />
          </mxGeometry>
        </mxCell>
        <mxCell id="qOU6VOcznKCTGPe6LT-z-93" value="" style="endArrow=none;html=1;rounded=0;exitX=0.5;exitY=0;exitDx=0;exitDy=0;entryX=0.5;entryY=1;entryDx=0;entryDy=0;" parent="1" source="qOU6VOcznKCTGPe6LT-z-37" target="qOU6VOcznKCTGPe6LT-z-35" edge="1">
          <mxGeometry relative="1" as="geometry">
            <mxPoint x="75" y="1172" as="sourcePoint" />
            <mxPoint x="95" y="1105" as="targetPoint" />
          </mxGeometry>
        </mxCell>
        <mxCell id="qOU6VOcznKCTGPe6LT-z-94" value="View" style="rhombus;whiteSpace=wrap;html=1;glass=0;rounded=0;shadow=0;" parent="1" vertex="1">
          <mxGeometry x="340" y="420" width="99.25" height="40" as="geometry" />
        </mxCell>
        <mxCell id="qOU6VOcznKCTGPe6LT-z-96" value="" style="endArrow=none;html=1;rounded=0;exitX=0;exitY=0.5;exitDx=0;exitDy=0;entryX=1;entryY=0.5;entryDx=0;entryDy=0;" parent="1" source="SwGKeSVZPL9AItlMTAbg-91" target="qOU6VOcznKCTGPe6LT-z-94" edge="1">
          <mxGeometry relative="1" as="geometry">
            <mxPoint x="470" y="509" as="sourcePoint" />
            <mxPoint x="440" y="460" as="targetPoint" />
          </mxGeometry>
        </mxCell>
        <mxCell id="qOU6VOcznKCTGPe6LT-z-97" value="" style="endArrow=none;html=1;rounded=0;exitX=0.5;exitY=0;exitDx=0;exitDy=0;entryX=1;entryY=0.5;entryDx=0;entryDy=0;" parent="1" source="qOU6VOcznKCTGPe6LT-z-94" target="SwGKeSVZPL9AItlMTAbg-140" edge="1">
          <mxGeometry relative="1" as="geometry">
            <mxPoint x="537" y="469" as="sourcePoint" />
            <mxPoint x="400" y="470" as="targetPoint" />
          </mxGeometry>
        </mxCell>
        <mxCell id="qOU6VOcznKCTGPe6LT-z-100" value="1" style="rounded=1;arcSize=0;whiteSpace=wrap;html=1;align=left;opacity=0;rotation=0;" parent="1" vertex="1">
          <mxGeometry x="150" y="110" width="10" height="30" as="geometry" />
        </mxCell>
        <mxCell id="qOU6VOcznKCTGPe6LT-z-101" value="M" style="rounded=1;arcSize=0;whiteSpace=wrap;html=1;align=left;opacity=0;rotation=0;" parent="1" vertex="1">
          <mxGeometry x="150" y="210" width="10" height="30" as="geometry" />
        </mxCell>
        <mxCell id="qOU6VOcznKCTGPe6LT-z-102" value="1" style="rounded=1;arcSize=0;whiteSpace=wrap;html=1;align=left;opacity=0;rotation=0;" parent="1" vertex="1">
          <mxGeometry x="220" y="230" width="10" height="30" as="geometry" />
        </mxCell>
        <mxCell id="qOU6VOcznKCTGPe6LT-z-103" value="M" style="rounded=1;arcSize=0;whiteSpace=wrap;html=1;align=left;opacity=0;rotation=0;" parent="1" vertex="1">
          <mxGeometry x="510" y="230" width="10" height="30" as="geometry" />
        </mxCell>
        <mxCell id="qOU6VOcznKCTGPe6LT-z-106" value="" style="endArrow=none;html=1;rounded=0;exitX=0.5;exitY=0;exitDx=0;exitDy=0;entryX=0.5;entryY=1;entryDx=0;entryDy=0;" parent="1" source="SwGKeSVZPL9AItlMTAbg-63" target="SwGKeSVZPL9AItlMTAbg-62" edge="1">
          <mxGeometry relative="1" as="geometry">
            <mxPoint x="586" y="350" as="sourcePoint" />
            <mxPoint x="586" y="291" as="targetPoint" />
          </mxGeometry>
        </mxCell>
        <mxCell id="qOU6VOcznKCTGPe6LT-z-107" value="1" style="rounded=1;arcSize=0;whiteSpace=wrap;html=1;align=left;opacity=0;rotation=0;" parent="1" vertex="1">
          <mxGeometry x="740" y="190" width="10" height="30" as="geometry" />
        </mxCell>
        <mxCell id="qOU6VOcznKCTGPe6LT-z-108" value="M" style="rounded=1;arcSize=0;whiteSpace=wrap;html=1;align=left;opacity=0;rotation=0;" parent="1" vertex="1">
          <mxGeometry x="630" y="230" width="10" height="30" as="geometry" />
        </mxCell>
        <mxCell id="qOU6VOcznKCTGPe6LT-z-109" value="1" style="rounded=1;arcSize=50;whiteSpace=wrap;html=1;align=left;opacity=0;rotation=0;" parent="1" vertex="1">
          <mxGeometry x="626" y="393" width="10" height="30" as="geometry" />
        </mxCell>
        <mxCell id="qOU6VOcznKCTGPe6LT-z-110" value="M" style="rounded=1;arcSize=0;whiteSpace=wrap;html=1;align=left;opacity=0;rotation=0;" parent="1" vertex="1">
          <mxGeometry x="580" y="280" width="10" height="30" as="geometry" />
        </mxCell>
        <mxCell id="qOU6VOcznKCTGPe6LT-z-111" value="M" style="rounded=1;arcSize=0;whiteSpace=wrap;html=1;align=left;opacity=0;rotation=0;" parent="1" vertex="1">
          <mxGeometry x="510" y="280" width="10" height="30" as="geometry" />
        </mxCell>
        <mxCell id="qOU6VOcznKCTGPe6LT-z-112" value="1" style="rounded=1;arcSize=0;whiteSpace=wrap;html=1;align=left;opacity=0;rotation=0;" parent="1" vertex="1">
          <mxGeometry x="200" y="370" width="10" height="30" as="geometry" />
        </mxCell>
        <mxCell id="qOU6VOcznKCTGPe6LT-z-115" value="1" style="rounded=1;arcSize=0;whiteSpace=wrap;html=1;align=left;opacity=0;rotation=0;" parent="1" vertex="1">
          <mxGeometry x="400" y="530" width="10" height="30" as="geometry" />
        </mxCell>
        <mxCell id="qOU6VOcznKCTGPe6LT-z-116" value="1" style="rounded=1;arcSize=0;whiteSpace=wrap;html=1;align=left;opacity=0;rotation=0;" parent="1" vertex="1">
          <mxGeometry x="400" y="730" width="10" height="30" as="geometry" />
        </mxCell>
        <mxCell id="qOU6VOcznKCTGPe6LT-z-117" value="" style="endArrow=none;html=1;rounded=0;exitX=1;exitY=0.5;exitDx=0;exitDy=0;entryX=0;entryY=0.5;entryDx=0;entryDy=0;" parent="1" source="SwGKeSVZPL9AItlMTAbg-182" target="SwGKeSVZPL9AItlMTAbg-184" edge="1">
          <mxGeometry relative="1" as="geometry">
            <mxPoint x="667" y="676" as="sourcePoint" />
            <mxPoint x="711" y="634" as="targetPoint" />
          </mxGeometry>
        </mxCell>
        <mxCell id="qOU6VOcznKCTGPe6LT-z-118" value="" style="endArrow=none;html=1;rounded=0;exitX=1;exitY=0.5;exitDx=0;exitDy=0;entryX=0.5;entryY=0;entryDx=0;entryDy=0;" parent="1" source="SwGKeSVZPL9AItlMTAbg-134" edge="1">
          <mxGeometry relative="1" as="geometry">
            <mxPoint x="625.1399999999999" y="360" as="sourcePoint" />
            <mxPoint x="624.5000000000002" y="420" as="targetPoint" />
          </mxGeometry>
        </mxCell>
        <mxCell id="qOU6VOcznKCTGPe6LT-z-119" value="1" style="rounded=1;arcSize=0;whiteSpace=wrap;html=1;align=left;opacity=0;rotation=0;" parent="1" vertex="1">
          <mxGeometry x="450" y="750" width="10" height="30" as="geometry" />
        </mxCell>
        <mxCell id="qOU6VOcznKCTGPe6LT-z-120" value="M" style="rounded=1;arcSize=0;whiteSpace=wrap;html=1;align=left;opacity=0;rotation=0;" parent="1" vertex="1">
          <mxGeometry x="590" y="690" width="10" height="30" as="geometry" />
        </mxCell>
        <mxCell id="qOU6VOcznKCTGPe6LT-z-121" value="1" style="rounded=1;arcSize=50;whiteSpace=wrap;html=1;align=left;opacity=0;rotation=0;" parent="1" vertex="1">
          <mxGeometry x="620" y="460" width="10" height="30" as="geometry" />
        </mxCell>
        <mxCell id="qOU6VOcznKCTGPe6LT-z-122" value="1" style="rounded=1;arcSize=0;whiteSpace=wrap;html=1;align=left;opacity=0;rotation=0;" parent="1" vertex="1">
          <mxGeometry x="260" y="892" width="10" height="30" as="geometry" />
        </mxCell>
        <mxCell id="qOU6VOcznKCTGPe6LT-z-124" value="1" style="rounded=1;arcSize=0;whiteSpace=wrap;html=1;align=left;opacity=0;rotation=0;" parent="1" vertex="1">
          <mxGeometry x="740" y="990" width="10" height="30" as="geometry" />
        </mxCell>
        <mxCell id="qOU6VOcznKCTGPe6LT-z-126" value="1" style="rounded=1;arcSize=0;whiteSpace=wrap;html=1;align=left;opacity=0;rotation=0;" parent="1" vertex="1">
          <mxGeometry x="810" y="140" width="10" height="30" as="geometry" />
        </mxCell>
        <mxCell id="lNNcCKvE4F2d2vgPbGCI-1" value="" style="endArrow=none;html=1;rounded=0;exitX=0;exitY=0.5;exitDx=0;exitDy=0;entryX=1;entryY=0.5;entryDx=0;entryDy=0;" edge="1" parent="1" source="SwGKeSVZPL9AItlMTAbg-123" target="SwGKeSVZPL9AItlMTAbg-91">
          <mxGeometry relative="1" as="geometry">
            <mxPoint x="719" y="350" as="sourcePoint" />
            <mxPoint x="634" y="351" as="targetPoint" />
          </mxGeometry>
        </mxCell>
        <mxCell id="lNNcCKvE4F2d2vgPbGCI-2" value="" style="endArrow=none;html=1;rounded=0;exitX=0;exitY=0.5;exitDx=0;exitDy=0;entryX=1;entryY=0.5;entryDx=0;entryDy=0;" edge="1" parent="1" source="SwGKeSVZPL9AItlMTAbg-124" target="SwGKeSVZPL9AItlMTAbg-91">
          <mxGeometry relative="1" as="geometry">
            <mxPoint x="729" y="280" as="sourcePoint" />
            <mxPoint x="644" y="281" as="targetPoint" />
          </mxGeometry>
        </mxCell>
        <mxCell id="lNNcCKvE4F2d2vgPbGCI-3" value="" style="endArrow=none;html=1;rounded=0;exitX=0;exitY=0.5;exitDx=0;exitDy=0;entryX=1;entryY=0.5;entryDx=0;entryDy=0;" edge="1" parent="1" source="SwGKeSVZPL9AItlMTAbg-132" target="SwGKeSVZPL9AItlMTAbg-91">
          <mxGeometry relative="1" as="geometry">
            <mxPoint x="739" y="290" as="sourcePoint" />
            <mxPoint x="654" y="291" as="targetPoint" />
          </mxGeometry>
        </mxCell>
        <mxCell id="lNNcCKvE4F2d2vgPbGCI-4" value="" style="endArrow=none;html=1;rounded=0;exitX=0;exitY=0.5;exitDx=0;exitDy=0;entryX=1;entryY=0.5;entryDx=0;entryDy=0;" edge="1" parent="1" source="SwGKeSVZPL9AItlMTAbg-125" target="SwGKeSVZPL9AItlMTAbg-91">
          <mxGeometry relative="1" as="geometry">
            <mxPoint x="749" y="300" as="sourcePoint" />
            <mxPoint x="664" y="301" as="targetPoint" />
          </mxGeometry>
        </mxCell>
      </root>
    </mxGraphModel>
  </diagram>
</mxfile>
